{"accessors" : [{"bufferView" : 0, "byteOffset" : 0, "componentType" : 5123, "count" : 12, "type" : "SCALAR", "max" : [6], "min" : [0]}, {"bufferView" : 1, "byteOffset" : 0, "componentType" : 5126, "count" : 7, "type" : "VEC3", "max" : [3, 0, 3.017505168914795], "min" : [-3, 0, -3.017505168914795], "name" : "POSITION"}, {"bufferView" : 1, "byteOffset" : 12, "componentType" : 5126, "count" : 7, "type" : "VEC3", "max" : [0, 1.0000044107437134, -0], "min" : [0, 1.0000044107437134, -0], "name" : "NORMAL"}, {"bufferView" : 1, "byteOffset" : 24, "componentType" : 5126, "count" : 7, "type" : "VEC2", "max" : [1, 1], "min" : [0, 0], "name" : "TEXCOORD_0"}, {"bufferView" : 0, "byteOffset" : 24, "componentType" : 5123, "count" : 12, "type" : "SCALAR", "max" : [6], "min" : [0]}, {"bufferView" : 2, "byteOffset" : 0, "componentType" : 5126, "count" : 7, "type" : "VEC3", "max" : [3, 0, 3.017505168914795], "min" : [-3, 0, -3.017505168914795], "name" : "POSITION"}, {"bufferView" : 2, "byteOffset" : 12, "componentType" : 5126, "count" : 7, "type" : "VEC3", "max" : [0, 1.0000044107437134, -0], "min" : [0, 1.0000044107437134, -0], "name" : "NORMAL"}, {"bufferView" : 2, "byteOffset" : 24, "componentType" : 5126, "count" : 7, "type" : "VEC2", "max" : [1, 1], "min" : [0, 0], "name" : "TEXCOORD_0"}], "asset" : {"generator" : "Aspose.3D 21.4", "version" : "2.0"}, "buffers" : [{"uri" : "buffer.bin", "byteLength" : 828}], "bufferViews" : [{"buffer" : 0, "byteOffset" : 0, "byteLength" : 48, "target" : 34963}, {"buffer" : 0, "byteOffset" : 52, "byteLength" : 384, "byteStride" : 32, "target" : 34962}, {"buffer" : 0, "byteOffset" : 440, "byteLength" : 384, "byteStride" : 32, "target" : 34962}], "materials" : [{"pbrMetallicRoughness" : {"baseColorFactor" : [0.800000011920929, 0.800000011920929, 0.800000011920929, 1], "metallicFactor" : 0, "roughnessFactor" : 0.5}, "emissiveFactor" : [0, 0, 0], "alphaMode" : "OPAQUE", "doubleSided" : true}, {"pbrMetallicRoughness" : {"baseColorFactor" : [0.8000000715255737, 0.04022333025932312, 0.0563383474946022, 1], "metallicFactor" : 0, "roughnessFactor" : 0.5}, "emissiveFactor" : [0, 0, 0], "alphaMode" : "OPAQUE", "doubleSided" : true}], "meshes" : [{"primitives" : [{"attributes" : {"POSITION" : 1, "NORMAL" : 2, "TEXCOORD_0" : 3}, "indices" : 0, "material" : 0, "mode" : 4}, {"attributes" : {"POSITION" : 5, "NORMAL" : 6, "TEXCOORD_0" : 7}, "indices" : 4, "material" : 1, "mode" : 4}]}], "nodes" : [{"mesh" : 0, "name" : "Plane"}], "scene" : 0, "scenes" : [{"nodes" : [0]}]}