{
    "asset" : {
        "generator" : "Khronos glTF Blender I/O v1.5.17",
        "version" : "2.0"
    },
    "scene" : 0,
    "scenes" : [
        {
            "name" : "Scene",
            "nodes" : [
                0
            ]
        }
    ],
    "nodes" : [
        {
            "mesh" : 0,
            "name" : "M",
            "scale" : [
                1.5,
                1.25,
                1.3499999046325684
            ],
            "translation" : [
                -0.0009999999310821295,
                0,
                0.08999999612569809
            ]
        }
    ],
    "materials" : [
        {
            "doubleSided" : true,
            "name" : "Material.M",
            "pbrMetallicRoughness" : {
                "baseColorFactor" : [
                    0.17765100300312042,
                    0.03494750335812569,
                    0.8000000715255737,
                    1
                ],
                "metallicFactor" : 0,
                "roughnessFactor" : 0.5
            }
        }
    ],
    "meshes" : [
        {
            "name" : "Text.004",
            "primitives" : [
                {
                    "attributes" : {
                        "POSITION" : 0,
                        "NORMAL" : 1,
                        "TEXCOORD_0" : 2
                    },
                    "indices" : 3,
                    "material" : 0
                }
            ]
        }
    ],
    "accessors" : [
        {
            "bufferView" : 0,
            "componentType" : 5126,
            "count" : 89,
            "max" : [
                0.06370000541210175,
                0.019999999552965164,
                0
            ],
            "min" : [
                -0.06349999457597733,
                -0.019999999552965164,
                -0.1363999992609024
            ],
            "type" : "VEC3"
        },
        {
            "bufferView" : 1,
            "componentType" : 5126,
            "count" : 89,
            "type" : "VEC3"
        },
        {
            "bufferView" : 2,
            "componentType" : 5126,
            "count" : 89,
            "type" : "VEC2"
        },
        {
            "bufferView" : 3,
            "componentType" : 5123,
            "count" : 168,
            "type" : "SCALAR"
        }
    ],
    "bufferViews" : [
        {
            "buffer" : 0,
            "byteLength" : 1068,
            "byteOffset" : 0
        },
        {
            "buffer" : 0,
            "byteLength" : 1068,
            "byteOffset" : 1068
        },
        {
            "buffer" : 0,
            "byteLength" : 712,
            "byteOffset" : 2136
        },
        {
            "buffer" : 0,
            "byteLength" : 336,
            "byteOffset" : 2848
        }
    ],
    "buffers" : [
        {
            "byteLength" : 3184,
            "uri" : "M.bin"
        }
    ]
}
